<?xml version="1.0" encoding="utf-8"?>
<!-- Generator: Adobe Illustrator 17.0.0, SVG Export Plug-In . SVG Version: 6.00 Build 0)  -->
<!DOCTYPE svg PUBLIC "-//W3C//DTD SVG 1.1//EN" "http://www.w3.org/Graphics/SVG/1.1/DTD/svg11.dtd">
<svg version="1.1" id="Layer_1" xmlns="http://www.w3.org/2000/svg" xmlns:xlink="http://www.w3.org/1999/xlink" x="0px" y="0px"
	 width="1000px" height="1000px" viewBox="0 0 1000 1000" enable-background="new 0 0 1000 1000" xml:space="preserve">
<title>GitHub icon</title>
<path fill="#333333" d="M500,12.375c-276.25,0-500,223.875-500,500C0,733.333,143.25,920.708,341.875,986.75
	c25,4.708,34.167-10.75,34.167-24.042c0-11.875-0.417-43.333-0.625-85C236.333,907.875,207,810.625,207,810.625
	c-22.75-57.708-55.625-73.125-55.625-73.125c-45.292-31,3.5-30.375,3.5-30.375c50.208,3.5,76.583,51.5,76.583,51.5
	C276.042,835.083,348.5,813,377.083,800.208c4.5-32.333,17.375-54.375,31.667-66.875C297.708,720.833,181,677.833,181,486.25
	c0-54.583,19.375-99.167,51.458-134.167c-5.625-12.625-22.5-63.458,4.375-132.333c0,0,41.875-13.417,137.5,51.25
	c40-11.125,82.5-16.625,125-16.875c42.5,0.25,85,5.75,125,16.875c95-64.667,136.875-51.25,136.875-51.25
	c26.875,68.875,10,119.708,5,132.333c31.875,35,51.25,79.583,51.25,134.167c0,192.083-116.875,234.375-228.125,246.667
	c17.5,15,33.75,45.667,33.75,92.5c0,66.917-0.625,120.667-0.625,136.917c0,13.125,8.75,28.75,34.375,23.75
	C856.875,920.5,1000,733,1000,512.375C1000,236.25,776.125,12.375,500,12.375"/>
</svg>
