<?xml version="1.0" encoding="utf-8"?>
<!-- Generator: Adobe Illustrator 17.0.0, SVG Export Plug-In . SVG Version: 6.00 Build 0)  -->
<!DOCTYPE svg PUBLIC "-//W3C//DTD SVG 1.1//EN" "http://www.w3.org/Graphics/SVG/1.1/DTD/svg11.dtd">
<svg version="1.1" id="Layer_1" xmlns="http://www.w3.org/2000/svg" xmlns:xlink="http://www.w3.org/1999/xlink" x="0px" y="0px"
	 width="1159.054px" height="290px" viewBox="0 0 1159.054 290" enable-background="new 0 0 1159.054 290" xml:space="preserve">
<g>
	<path d="M218.768,212.177c-2.774,0-6.104,4.076-6.104,4.076c-3.883,3.784-12.484,14.554-29.407,14.552
		c-13.317,0-24.692-8.733-24.692-25.907c0,0,7.49,1.747,10.542,1.747c34.957,0,45.222-29.11,45.222-43.083
		c0-15.427-13.595-30.565-30.518-30.565c-24.136,0-59.37,29.402-59.37,73.939c0,0.554,0.022,1.1,0.042,1.647
		c-4.629,6.836-15.982,21.642-27.507,21.642c-11.375,0-17.756-9.607-17.756-22.997c0-10.187,2.22-22.123,2.22-22.123
		c27.743-24.743,68.803-92.277,68.803-117.02c0-10.48-10.819-23.87-23.304-23.87c-39.95,0-81.288,103.339-81.288,161.849
		c0,27.363,20.253,43.664,42.17,43.663c17.578,0,32.189-14.657,40.441-25.216c7.128,15.257,23.643,25.216,44.452,25.216
		c29.963,0,48.274-24.743,48.274-24.743s3.606-4.366,3.606-6.985C224.594,214.797,222.097,212.177,218.768,212.177z
		 M191.025,147.845c3.052,0,4.994,2.037,4.994,5.822c0,12.226-15.814,39.297-36.066,39.298
		C159.953,177.828,175.766,147.845,191.025,147.845z M133.043,63.718c1.941,0,3.329,1.455,3.329,4.075
		c0,17.757-31.627,80.925-50.77,97.517C96.976,116.698,123.055,63.718,133.043,63.718z"/>
	<path d="M411.339,152.894L382.736,41.761H275.404v38.331h15.009v131.042H275.12v38.331h76.747v-38.331h-16.143V94.058h1.133
		c0.849,14.857,4.531,31.794,5.947,36.846l31.718,118.561h59.188l29.736-115.59c1.983-6.834,5.947-26.446,8.213-39.817h1.134v17.532
		v99.246h-15.859v38.629h89.491v-38.629h-15.577V80.092h15.577V41.761H438.526L411.339,152.894z"/>
	<path d="M639.321,214.403c-23.788,0-27.47-16.344-29.17-24.366h89.208c5.947-16.937,2.832-39.818-0.567-50.218
		c-8.212-24.96-33.983-43.086-67.684-43.086c-42.763,0-76.181,28.823-76.181,77.555c0,57.052,39.648,80.526,74.765,80.526
		c29.453,0,52.108-6.834,73.065-25.851l-23.787-28.824C663.676,213.511,648.95,214.403,639.321,214.403z M632.808,136.847
		c18.125,0,20.673,12.48,20.957,23.772h-42.764C611.568,153.19,615.533,136.847,632.808,136.847z"/>
	<path d="M946.026,168.343c0-36.251-7.079-71.315-52.957-71.315c-19.541,0-32.852,10.995-41.631,21.395
		c-4.531-7.132-13.593-21.395-42.196-21.395c-17.842,0-30.869,16.047-35.401,21.692l-6.23-17.531h-53.524v39.224h11.895v70.126
		h-11.895v38.924h84.109v-38.926h-16.992v-52.892c0-12.183,3.681-17.829,12.743-17.829c11.329,0,11.895,9.807,11.895,33.875v75.773
		h73.349v-39.818h-16.992v-48.137c0-12.777,2.833-21.692,15.01-21.692c13.31,0,10.762,22.584,10.762,36.846v72.801h71.932v-40.115
		h-13.877L946.026,168.343L946.026,168.343z"/>
	<path d="M1089.614,200.139c-15.294,13.372-30.02,14.264-39.649,14.264c-23.788,0-27.469-16.344-29.169-24.366h89.208
		c5.947-16.937,2.832-39.818-0.567-50.218c-8.212-24.96-33.983-43.086-67.684-43.086c-42.763,0-76.181,28.823-76.181,77.555
		c0,57.052,39.648,80.526,74.765,80.526c29.453,0,52.108-6.834,73.065-25.851L1089.614,200.139z M1043.453,136.847
		c18.125,0,20.673,12.48,20.957,23.772h-42.764C1022.213,153.19,1026.178,136.847,1043.453,136.847z"/>
</g>
</svg>
